<?xml version="1.0" encoding="utf-8"?>
<!-- Generator: Adobe Illustrator 19.2.0, SVG Export Plug-In . SVG Version: 6.00 Build 0)  -->
<svg version="1.1" id="Layer_1" xmlns="http://www.w3.org/2000/svg" xmlns:xlink="http://www.w3.org/1999/xlink" x="0px" y="0px"
	 viewBox="0 0 77.2 84.4" style="enable-background:new 0 0 77.2 84.4;" xml:space="preserve">
<style type="text/css">
	.st0{fill:#E44C3C;}
	.st1{fill:#556080;}
	.st2{fill:#EEC219;}
	.st3{fill:#FF5364;}
	.st4{fill:#8495C9;}
</style>
<path class="st0" d="M64.4,67.2H15.7V35.8c0-13.4,10.9-24.3,24.3-24.3c13.4,0,24.3,10.9,24.3,24.3V67.2z"/>
<rect x="11.4" y="67.2" class="st1" width="57.2" height="17.2"/>
<path class="st2" d="M66.2,6.1l-4.3,4.3c-0.6,0.6-0.6,1.5,0,2c0.3,0.3,0.6,0.4,1,0.4c0.4,0,0.7-0.1,1-0.4l4.3-4.3
	c0.6-0.6,0.6-1.5,0-2C67.7,5.6,66.8,5.6,66.2,6.1"/>
<path class="st2" d="M38.6,0c-0.8,0-1.4,0.6-1.4,1.4v4.3c0,0.8,0.6,1.4,1.4,1.4S40,6.5,40,5.7V1.4C40,0.6,39.4,0,38.6,0"/>
<path class="st2" d="M71.5,34.3h4.3c0.8,0,1.4-0.6,1.4-1.4c0-0.8-0.6-1.4-1.4-1.4h-4.3c-0.8,0-1.4,0.6-1.4,1.4
	C70.1,33.7,70.7,34.3,71.5,34.3"/>
<path class="st2" d="M75.8,54.3h-4.3c-0.8,0-1.4,0.6-1.4,1.4c0,0.8,0.6,1.4,1.4,1.4h4.3c0.8,0,1.4-0.6,1.4-1.4
	C77.2,55,76.6,54.3,75.8,54.3"/>
<path class="st2" d="M11,6.1c-0.6-0.6-1.5-0.6-2,0c-0.6,0.6-0.6,1.5,0,2l4.3,4.3c0.3,0.3,0.6,0.4,1,0.4c0.4,0,0.7-0.1,1-0.4
	c0.6-0.6,0.6-1.5,0-2L11,6.1z"/>
<path class="st2" d="M5.7,31.5H1.4c-0.8,0-1.4,0.6-1.4,1.4c0,0.8,0.6,1.4,1.4,1.4h4.3c0.8,0,1.4-0.6,1.4-1.4
	C7.2,32.1,6.5,31.5,5.7,31.5"/>
<path class="st2" d="M5.7,54.3H1.4C0.6,54.3,0,55,0,55.8c0,0.8,0.6,1.4,1.4,1.4h4.3c0.8,0,1.4-0.6,1.4-1.4C7.2,55,6.5,54.3,5.7,54.3
	"/>
<path class="st3" d="M40,11.4c-13.4,0-24.3,10.9-24.3,24.3v31.5H40V11.4z"/>
<rect x="11.4" y="67.2" class="st4" width="28.6" height="17.2"/>
</svg>
