<?xml version="1.0" encoding="utf-8"?>
<!-- Generator: Adobe Illustrator 16.0.0, SVG Export Plug-In . SVG Version: 6.00 Build 0)  -->
<!DOCTYPE svg PUBLIC "-//W3C//DTD SVG 1.1//EN" "http://www.w3.org/Graphics/SVG/1.1/DTD/svg11.dtd">
<svg version="1.1" id="Layer_1" xmlns="http://www.w3.org/2000/svg" xmlns:xlink="http://www.w3.org/1999/xlink" x="0px" y="0px"
	 width="326.43px" height="192.7px" viewBox="0 0 326.43 192.7" enable-background="new 0 0 326.43 192.7" xml:space="preserve">
<g>
	<path fill-rule="evenodd" clip-rule="evenodd" fill="#2F3E4F" d="M163.008,6c11.035,0.066,21.449,1.918,31.25,5.551
		c9.766,3.664,18.602,8.781,26.5,15.347c7.902,6.602,14.5,14.317,19.801,23.153h6.949c-4.133-7.469-9.133-14.266-15-20.403
		c-5.898-6.097-12.484-11.363-19.75-15.797c-7.301-4.433-15.133-7.836-23.5-10.203C180.891,1.25,172.141,0.035,163.008,0
		c-9.098,0.035-17.832,1.25-26.199,3.648c-8.368,2.367-16.2,5.77-23.5,10.203c-7.301,4.434-13.883,9.7-19.75,15.797
		c-5.868,6.137-10.868,12.934-15,20.403h6.898c5.336-8.836,11.934-16.551,19.801-23.153c7.902-6.566,16.75-11.683,26.551-15.347
		C141.609,7.918,152.008,6.066,163.008,6"/>
	<path fill-rule="evenodd" clip-rule="evenodd" fill="#354B5C" d="M163.059,186.699c-9.868-0.031-19.25-1.531-28.149-4.5
		c-8.902-2.934-17.066-7.098-24.5-12.5c-7.469-5.367-13.969-11.715-19.5-19.051h-7.402c5.836,8.5,12.836,15.887,21,22.152
		c8.168,6.301,17.199,11.164,27.101,14.598c9.899,3.469,20.383,5.234,31.45,5.301c11.035-0.066,21.5-1.832,31.398-5.301
		c9.902-3.434,18.934-8.297,27.102-14.598c8.168-6.266,15.168-13.652,21-22.152h-7.398c-5.535,7.336-12.035,13.684-19.5,19.051
		c-7.434,5.402-15.602,9.566-24.5,12.5C182.258,185.133,172.891,186.633,163.059,186.699"/>
	<path fill-rule="evenodd" clip-rule="evenodd" fill="#7D8C8A" d="M163.008,168.852c9.266-0.066,17.969-1.684,26.102-4.852
		c8.164-3.199,15.465-7.648,21.898-13.352h-96c6.433,5.703,13.734,10.152,21.902,13.352
		C145.043,167.168,153.742,168.785,163.008,168.852"/>
	<path fill-rule="evenodd" clip-rule="evenodd" fill="#94A4A1" d="M163.008,23.851c-7.5,0.032-14.664,1.114-21.5,3.25
		c-6.801,2.133-13.098,5.149-18.899,9.047c-5.8,3.903-10.933,8.535-15.402,13.903h111.602c-4.465-5.368-9.602-10-15.398-13.903
		c-5.801-3.898-12.102-6.914-18.902-9.047C177.676,24.965,170.508,23.883,163.008,23.851"/>
	<path fill-rule="evenodd" clip-rule="evenodd" fill="#BD2128" d="M0,112.25V79.433h14c6.242,0,9.363,2.621,9.363,7.871
		c0,5.922-4.355,9.586-13.058,10.993L9.66,96.324c7.344-1.148,11.016-4.094,11.016-8.836c0-3.949-2.356-5.922-7.067-5.922H2.41
		v30.684H0z M28.527,112.25V88.152h1.719l0.301,3.078c1.344-2.051,3.504-3.078,6.469-3.078v1.93c-2.875,0-4.903,1.015-6.078,3.051
		v19.117H28.527z M60.699,100.73H42.641c0,6.301,3.714,9.453,11.152,9.453c2.125,0,4.254-0.23,6.379-0.688v2.066
		c-2.125,0.457-4.711,0.688-7.758,0.688c-8.121,0-12.184-4.109-12.184-12.324c0-7.848,3.848-11.773,11.543-11.773
		C58.84,88.152,61.816,92.344,60.699,100.73 M42.641,98.574H58.43c0.367-5.602-2.082-8.402-7.344-8.402
		C45.73,90.172,42.914,92.972,42.641,98.574L42.641,98.574z M67.219,112.25V88.152h1.719l0.253,3.031
		c3.231-2.019,6.36-3.031,9.387-3.031c2.875,0,4.871,1.102,5.988,3.305c2.922-2.203,5.883-3.305,8.883-3.305
		c5.078,0,7.617,2.672,7.617,8.012v16.086H98.66V96.164c0-3.903-1.898-5.852-5.691-5.852c-2.879,0-5.379,1.039-7.508,3.121v18.817
		h-2.406V95.773c0-3.64-1.731-5.461-5.188-5.461c-3,0-5.746,1.039-8.238,3.121v18.817H67.219z M111.051,79.433v2.293h-2.41v-2.293
		H111.051 M111.051,88.152v24.098h-2.41V88.152H111.051z M137.258,100.73h-18.059c0,6.301,3.715,9.453,11.153,9.453
		c2.125,0,4.253-0.23,6.378-0.688v2.066c-2.125,0.457-4.71,0.688-7.757,0.688c-8.121,0-12.184-4.109-12.184-12.324
		c0-7.848,3.848-11.773,11.543-11.773C135.398,88.152,138.375,92.344,137.258,100.73 M119.199,98.574h15.789
		c0.367-5.602-2.082-8.402-7.343-8.402C122.289,90.172,119.473,92.972,119.199,98.574L119.199,98.574z M143.777,112.25V88.152h1.723
		l0.297,3.078c1.348-2.051,3.504-3.078,6.473-3.078v1.93c-2.879,0-4.907,1.015-6.082,3.051v19.117H143.777z M167.531,111.102v-2.293
		c3.441,1.07,7.234,1.605,11.379,1.605c6.719,0,10.078-2.676,10.078-8.031c0-3.672-2.234-5.508-6.703-5.508h-7.207
		c-6.102,0-9.156-2.68-9.156-8.031c0-6.426,4.398-9.641,13.195-9.641c3.672,0,7.23,0.457,10.672,1.375v2.066
		c-3.441-0.918-7-1.375-10.672-1.375c-7.188,0-10.785,2.524-10.785,7.575c0,3.824,2.25,5.734,6.746,5.734h7.207
		c6.074,0,9.109,2.602,9.109,7.805c0,6.73-4.16,10.098-12.484,10.098C174.766,112.48,170.973,112.02,167.531,111.102
		L167.531,111.102z M197.82,84.25h1.516l0.461,3.902h6.059v2.067h-5.625v15.214c0,3.168,1.203,4.75,3.605,4.75h2.02v2.066h-1.977
		c-4.039,0-6.059-2.164-6.059-6.496V84.25z M209.297,104.977c0-4.637,3.41-6.957,10.234-6.957c2.402,0,4.957,0.156,7.664,0.461
		v-2.961c0-3.535-2.773-5.3-8.328-5.3c-2.48,0-5.02,0.382-7.621,1.148v-2.066c2.602-0.766,5.141-1.149,7.621-1.149
		c7.16,0,10.738,2.57,10.738,7.711v16.387h-1.469l-0.777-1.699c-3.168,1.133-6.168,1.699-8.996,1.699
		C212.32,112.25,209.297,109.824,209.297,104.977 M219.531,100.086c-5.215,0-7.824,1.605-7.824,4.82c0,3.52,2.219,5.277,6.656,5.277
		c2.938,0,5.883-0.625,8.832-1.883v-7.754C224.598,100.238,222.043,100.086,219.531,100.086L219.531,100.086z M236.492,112.363
		V86.984c0-5.832,3-8.746,8.996-8.746c1.973,0,3.762,0.309,5.371,0.918v2.066c-1.516-0.613-3.313-0.918-5.395-0.918
		c-4.375,0-6.563,1.782-6.563,5.348v2.5h9.063v2.067h-9.063v22.054L236.492,112.363z M253.039,112.363V86.984
		c0-5.832,2.996-8.746,8.996-8.746c1.973,0,3.762,0.309,5.371,0.918v2.066c-1.516-0.613-3.313-0.918-5.395-0.918
		c-4.375,0-6.563,1.782-6.563,5.348v2.5h9.063v2.067h-9.063v22.054L253.039,112.363z M271.992,79.433v2.293h-2.406v-2.293H271.992
		 M271.992,88.152v24.098h-2.406V88.152H271.992z M278.879,112.25V88.152h1.723l0.297,3.078c3.992-2.051,7.465-3.078,10.418-3.078
		c5.25,0,7.871,2.531,7.871,7.598v16.5h-2.406V95.679c0-3.578-2.016-5.367-6.039-5.367c-2.891,0-6.043,1.016-9.453,3.051v18.887
		H278.879z M324.02,90.859c-2.676-0.363-5.086-0.547-7.23-0.547c-6.348,0-9.523,3.235-9.523,9.708c0,6.625,3.039,9.934,9.113,9.934
		c2.203,0,4.75-0.41,7.641-1.238V90.859 M326.43,112.25c0,5.813-3.695,8.719-11.086,8.719c-2.965,0-5.598-0.379-7.895-1.145v-2.066
		c2.344,0.766,4.988,1.148,7.941,1.148c5.754,0,8.629-2.219,8.629-6.656v-1.148c-3.027,0.766-5.582,1.148-7.664,1.148
		c-7.621,0-11.43-4.063-11.43-12.188c0-7.938,4.016-11.91,12.047-11.91c3.262,0,6.414,0.328,9.457,0.988V112.25z"/>
</g>
</svg>
