<?xml version="1.0" encoding="utf-8"?>
<!-- Generator: Adobe Illustrator 19.2.0, SVG Export Plug-In . SVG Version: 6.00 Build 0)  -->
<svg version="1.1" id="Layer_1" xmlns="http://www.w3.org/2000/svg" xmlns:xlink="http://www.w3.org/1999/xlink" x="0px" y="0px"
	 viewBox="0 0 110 92.9" style="enable-background:new 0 0 110 92.9;" xml:space="preserve">
<style type="text/css">
	.st0{fill:#E2BE5C;}
	.st1{fill:#556080;}
	.st2{fill:#8495C9;}
</style>
<g>
	<rect x="39.8" y="17.1" class="st0" width="28.4" height="22.8"/>
	<path class="st1" d="M64.5,17.1h-3.8v-6.6c0-3.7-3-6.6-6.6-6.6c-3.7,0-6.6,3-6.6,6.6v6.6h-3.8v-6.6C43.6,4.7,48.3,0,54.1,0
		c5.8,0,10.4,4.7,10.4,10.4V17.1z"/>
	<path class="st1" d="M91,92.9H19c-10.4,0-19-8.5-19-19c0-10.4,8.5-19,19-19H91c10.4,0,19,8.5,19,19C110,84.4,101.5,92.9,91,92.9"/>
	<path class="st2" d="M27.6,68.5l-4.8,2.4v-6.4c0-1-0.8-1.9-1.9-1.9c-1,0-1.9,0.8-1.9,1.9v6.4l-4.8-2.4c-0.9-0.5-2.1-0.1-2.5,0.8
		c-0.5,0.9-0.1,2.1,0.8,2.5l5.6,2.8l-4.3,5.8c-0.6,0.8-0.5,2,0.4,2.7c0.3,0.3,0.7,0.4,1.1,0.4c0.6,0,1.1-0.3,1.5-0.8l4.2-5.6
		l4.2,5.6c0.4,0.5,0.9,0.8,1.5,0.8c0.4,0,0.8-0.1,1.1-0.4c0.8-0.6,1-1.8,0.4-2.7l-4.3-5.8l5.6-2.8c0.9-0.5,1.3-1.6,0.8-2.5
		C29.7,68.4,28.5,68,27.6,68.5"/>
	<path class="st2" d="M50.4,68.5l-4.8,2.4v-6.4c0-1-0.8-1.9-1.9-1.9c-1,0-1.9,0.8-1.9,1.9v6.4l-4.8-2.4c-0.9-0.5-2.1-0.1-2.5,0.8
		c-0.5,0.9-0.1,2.1,0.9,2.5l5.6,2.8l-4.3,5.8c-0.6,0.8-0.5,2,0.4,2.7c0.3,0.3,0.7,0.4,1.1,0.4c0.6,0,1.1-0.3,1.5-0.8l4.2-5.6
		l4.2,5.6c0.4,0.5,0.9,0.8,1.5,0.8c0.4,0,0.8-0.1,1.1-0.4c0.8-0.6,1-1.8,0.4-2.7l-4.3-5.8l5.6-2.8c0.9-0.5,1.3-1.6,0.8-2.5
		C52.4,68.4,51.3,68,50.4,68.5"/>
	<path class="st2" d="M73.1,68.5l-4.8,2.4v-6.4c0-1-0.8-1.9-1.9-1.9c-1,0-1.9,0.8-1.9,1.9v6.4l-4.8-2.4c-0.9-0.5-2.1-0.1-2.5,0.8
		c-0.5,0.9-0.1,2.1,0.8,2.5l5.6,2.8l-4.3,5.8c-0.6,0.8-0.5,2,0.4,2.7c0.3,0.3,0.7,0.4,1.1,0.4c0.6,0,1.1-0.3,1.5-0.8l4.2-5.6
		l4.2,5.6c0.4,0.5,0.9,0.8,1.5,0.8c0.4,0,0.8-0.1,1.1-0.4c0.8-0.6,1-1.8,0.4-2.7l-4.3-5.8l5.6-2.8c0.9-0.5,1.3-1.6,0.9-2.5
		C75.2,68.4,74.1,68,73.1,68.5"/>
	<path class="st2" d="M98.4,69.3c-0.5-0.9-1.6-1.3-2.5-0.8L91,70.9v-6.4c0-1-0.8-1.9-1.9-1.9c-1,0-1.9,0.8-1.9,1.9v6.4l-4.8-2.4
		c-0.9-0.5-2.1-0.1-2.5,0.8c-0.5,0.9-0.1,2.1,0.8,2.5l5.6,2.8l-4.3,5.8c-0.6,0.8-0.5,2,0.4,2.7c0.3,0.3,0.7,0.4,1.1,0.4
		c0.6,0,1.1-0.3,1.5-0.8l4.2-5.6l4.2,5.6c0.4,0.5,0.9,0.8,1.5,0.8c0.4,0,0.8-0.1,1.1-0.4c0.8-0.6,1-1.8,0.4-2.7L92,74.7l5.6-2.8
		C98.5,71.4,98.9,70.3,98.4,69.3"/>
</g>
</svg>
