<?xml version="1.0" encoding="utf-8"?>
<!-- Generator: Adobe Illustrator 19.2.0, SVG Export Plug-In . SVG Version: 6.00 Build 0)  -->
<svg version="1.1" id="Layer_1" xmlns="http://www.w3.org/2000/svg" xmlns:xlink="http://www.w3.org/1999/xlink" x="0px" y="0px"
	 viewBox="0 0 89.1 89.1" style="enable-background:new 0 0 89.1 89.1;" xml:space="preserve">
<style type="text/css">
	.st0{fill:#CF5C56;}
	.st1{fill:#F3EDC8;}
	.st2{fill:#C3BDA3;}
	.st3{fill:#F18574;}
	.st4{fill:#DF705C;}
	.st5{fill:#ED6F65;}
</style>
<g>
	<path class="st0" d="M61,13.8L47.4,1.1c-1.6-1.5-4.1-1.5-5.7,0L28,13.8H61z"/>
	<polygon class="st1" points="79.9,13.8 9.2,13.8 9.2,46.9 32.2,64.5 56.8,64.5 79.9,46.9 	"/>
	<path class="st2" d="M49.1,27.6h-9.2c-0.8,0-1.5-0.7-1.5-1.5c0-0.8,0.7-1.5,1.5-1.5h9.2c0.8,0,1.5,0.7,1.5,1.5
		C50.7,27,50,27.6,49.1,27.6"/>
	<path class="st2" d="M63,52.2h-9.2c-0.8,0-1.5-0.7-1.5-1.5c0-0.8,0.7-1.5,1.5-1.5H63c0.8,0,1.5,0.7,1.5,1.5
		C64.5,51.5,63.8,52.2,63,52.2"/>
	<path class="st2" d="M33.8,39.9h-7.7c-0.8,0-1.5-0.7-1.5-1.5c0-0.8,0.7-1.5,1.5-1.5h7.7c0.8,0,1.5,0.7,1.5,1.5
		C35.3,39.2,34.6,39.9,33.8,39.9"/>
	<path class="st2" d="M56.8,39.9H46.1c-0.8,0-1.5-0.7-1.5-1.5c0-0.8,0.7-1.5,1.5-1.5h10.7c0.8,0,1.5,0.7,1.5,1.5
		C58.4,39.2,57.7,39.9,56.8,39.9"/>
	<path class="st2" d="M39.9,39.9c-0.4,0-0.8-0.2-1.1-0.4c-0.3-0.3-0.4-0.7-0.4-1.1c0-0.4,0.2-0.8,0.4-1.1c0.6-0.6,1.6-0.6,2.2,0
		c0.3,0.3,0.4,0.7,0.4,1.1c0,0.4-0.2,0.8-0.4,1.1C40.7,39.8,40.3,39.9,39.9,39.9"/>
	<path class="st2" d="M47.6,52.2H32.2c-0.8,0-1.5-0.7-1.5-1.5c0-0.8,0.7-1.5,1.5-1.5h15.4c0.8,0,1.5,0.7,1.5,1.5
		C49.1,51.5,48.5,52.2,47.6,52.2"/>
	<path class="st2" d="M26.1,52.2c-0.4,0-0.8-0.2-1.1-0.4c-0.3-0.3-0.4-0.7-0.4-1.1c0-0.4,0.2-0.8,0.4-1.1c0.6-0.6,1.6-0.6,2.2,0
		c0.3,0.3,0.4,0.7,0.4,1.1c0,0.4-0.2,0.8-0.4,1.1C26.9,52,26.5,52.2,26.1,52.2"/>
	<path class="st2" d="M63,39.9c-0.4,0-0.8-0.2-1.1-0.4c-0.3-0.3-0.4-0.7-0.4-1.1c0-0.4,0.2-0.8,0.4-1.1c0.6-0.6,1.6-0.6,2.2,0
		c0.3,0.3,0.4,0.7,0.4,1.1c0,0.4-0.2,0.8-0.4,1.1C63.8,39.8,63.4,39.9,63,39.9"/>
	<polygon class="st0" points="9.4,47.1 9.2,46.9 9.2,31.3 0,39.9 0,39.9 	"/>
	<polygon class="st0" points="79.9,31.3 79.9,46.9 79.5,47.2 79.5,47.2 89.1,39.9 89.1,39.9 	"/>
	<polygon class="st3" points="0,89.1 0.2,89.1 88.4,89.1 88.9,89.1 89.1,89.1 56.8,64.5 32.2,64.5 	"/>
	<polygon class="st4" points="0,89.1 0,39.9 32.2,64.5 	"/>
	<polygon class="st5" points="89.1,89.1 89.1,39.9 56.8,64.5 	"/>
</g>
</svg>
